<?xml version="1.0" encoding="utf-8"?>
<!-- Generator: Adobe Illustrator 27.0.0, SVG Export Plug-In . SVG Version: 6.00 Build 0)  -->
<svg version="1.1" id="Capa_1" xmlns="http://www.w3.org/2000/svg" xmlns:xlink="http://www.w3.org/1999/xlink" x="0px" y="0px"
	 viewBox="0 0 491.5 491.5" style="enable-background:new 0 0 491.5 491.5;" xml:space="preserve">
<style type="text/css">
	.st0{fill-rule:evenodd;clip-rule:evenodd;fill:#05A4D6;}
	.st1{fill:#FFFFFF;}
</style>
<g id="Layer_x0020_1">
	<path class="st0" d="M61.4,0h368.6c33.9,0,61.4,27.5,61.4,61.4v368.6c0,33.9-27.5,61.4-61.4,61.4H61.4C27.5,491.5,0,464,0,430.1
		V61.4C0,27.5,27.5,0,61.4,0z"/>
	<g id="Dibujo">
		<path class="st1" d="M292.2,82c6.7,0,12.2-5.5,12.2-12.2V45.5c0-6.7-5.5-12.2-12.2-12.2c-6.7,0-12.2,5.5-12.2,12.2v24.3
			C280,76.6,285.4,82,292.2,82z M368.6,229.3c5.8-11.7,8.8-24.5,8.8-37.7c0-47-38.2-85.2-85.2-85.2c-28,0-54.1,13.9-70,36.7
			c-1,0-2-0.1-3.1-0.1c-46.7,0-86.6,30.5-99.3,74.2c-3.5-0.6-7.2-1.1-10.3-1.1c-36.9,0-67,30-67,67s30,67,67,67h68.6l-23.9,35.9
			c-2.5,3.7-2.7,8.5-0.6,12.5c2.1,4,6.3,6.4,10.7,6.4h13.8l-23.9,35.9c-3.7,5.6-2.2,13.2,3.4,16.9c2.1,1.4,4.4,2,6.7,2
			c3.9,0,7.8-1.9,10.1-5.4l36.5-54.8c2.5-3.7,2.7-8.5,0.6-12.5c-2.1-4-6.3-6.4-10.7-6.4h-13.8l20.3-30.4H239l-11.7,17.6
			c-2.5,3.7-2.7,8.5-0.6,12.5c2.1,4,6.3,6.4,10.7,6.4h13.8L239.4,404c-3.7,5.6-2.2,13.2,3.4,16.9c2.1,1.4,4.4,2,6.7,2
			c3.9,0,7.8-1.9,10.1-5.4L284,381c2.5-3.7,2.7-8.5,0.6-12.5c-2.1-4-6.3-6.4-10.7-6.4h-13.8l8.1-12.2h60.4c36.9,0,67-30,67-67
			C395.6,261,385,241.5,368.6,229.3z M292.2,130.7c33.6,0,60.9,27.3,60.9,60.9c0,9.4-2.2,18.6-6.3,26.9c-5.8-1.6-11.8-2.5-18-2.5
			c-3.1,0-6.8,0.5-10.3,1.1c-9.8-33.5-35.6-59.3-68.2-69.4C261.3,137,276.3,130.7,292.2,130.7z M328.7,325.5H109.5
			c-23.5,0-42.6-19.1-42.6-42.6c0-23.5,19.1-42.6,42.6-42.6c1.7,0,4.4,0.4,7.3,1v11.2c0,6.7,5.4,12.2,12.2,12.2s12.2-5.5,12.2-12.2
			v-19.6c6.5-38.1,39.2-65.6,78-65.6c38.8,0,71.4,27.6,78,65.6v19.6c0,6.7,5.5,12.2,12.2,12.2c6.7,0,12.2-5.5,12.2-12.2v-11.2
			c2.9-0.6,5.6-1,7.3-1c23.5,0,42.6,19.1,42.6,42.6C371.3,306.4,352.2,325.5,328.7,325.5z M378.2,117.7c3.1,0,6.2-1.2,8.6-3.6
			l17.2-17.2c4.8-4.8,4.8-12.5,0-17.2c-4.8-4.8-12.5-4.8-17.2,0l-17.2,17.2c-4.8,4.8-4.8,12.5,0,17.2
			C372,116.5,375.1,117.7,378.2,117.7z M197.5,114.1c2.4,2.4,5.5,3.6,8.6,3.6c3.1,0,6.2-1.2,8.6-3.6c4.8-4.8,4.8-12.5,0-17.2
			l-17.2-17.2c-4.8-4.8-12.5-4.8-17.2,0c-4.8,4.8-4.8,12.5,0,17.2L197.5,114.1z M438.2,179.4h-24.3c-6.7,0-12.2,5.5-12.2,12.2
			c0,6.7,5.4,12.2,12.2,12.2h24.3c6.7,0,12.2-5.5,12.2-12.2C450.4,184.9,445,179.4,438.2,179.4z"/>
	</g>
</g>
</svg>
